<svg width="307.38505859375px" height="77.18376464843749px" xmlns="http://www.w3.org/2000/svg" viewBox="96.307470703125 36.408117675781256 307.38505859375 77.18376464843749" style="background: none;" preserveAspectRatio="xMidYMid"><defs><filter id="editing-hover" x="-100%" y="-100%" width="300%" height="300%"><feFlood flood-color="rgba(75.04100628930817%,77.41921072638054%,78.47619047619048%,0)" result="flood"></feFlood><feComposite operator="in" in2="SourceAlpha" in="flood" result="shadow"></feComposite><feOffset dx="-4" dy="-4" in="SourceGraphic" result="offset-1"></feOffset><feOffset dx="4" dy="4" in="shadow" result="offset-2"></feOffset><feMerge><feMergeNode in="offset-2"></feMergeNode><feMergeNode in="offset-1"></feMergeNode></feMerge></filter></defs><g filter="url(#editing-hover)"><g transform="translate(144.95999908447266, 91.46718788146973)"><path d="M6.15 0L19.43 0L25.58-24.60L15.74-24.60L13.04-8.61L12.55-8.61L9.84-24.60L0-24.60L6.15 0ZM37.88-24.60L37.88 0L28.04 0L28.04-23.37L37.88-24.60ZM27.51-29.23L27.51-29.23L27.51-29.23Q27.51-30.34 27.76-31.10L27.76-31.10L27.76-31.10Q28.00-31.86 28.62-32.33L28.62-32.33L28.62-32.33Q29.23-32.80 30.30-33.01L30.30-33.01L30.30-33.01Q31.37-33.21 33.01-33.21L33.01-33.21L33.01-33.21Q34.64-33.21 35.69-33.01L35.69-33.01L35.69-33.01Q36.74-32.80 37.35-32.33L37.35-32.33L37.35-32.33Q37.97-31.86 38.21-31.10L38.21-31.10L38.21-31.10Q38.46-30.34 38.46-29.23L38.46-29.23L38.46-29.23Q38.46-28.13 38.21-27.39L38.21-27.39L38.21-27.39Q37.97-26.65 37.35-26.18L37.35-26.18L37.35-26.18Q36.74-25.71 35.69-25.52L35.69-25.52L35.69-25.52Q34.64-25.34 33.01-25.34L33.01-25.34L33.01-25.34Q31.82-25.34 30.81-25.42L30.81-25.42L30.81-25.42Q29.81-25.50 29.07-25.89L29.07-25.89L29.07-25.89Q28.33-26.28 27.92-27.06L27.92-27.06L27.92-27.06Q27.51-27.84 27.51-29.23ZM57.32-31.98L67.16-32.72L67.16 0L62.24 0L60.11-2.05L60.11-2.05Q58.02 0.74 52.40 0.74L52.40 0.74L52.40 0.74Q49.45 0.74 47.44-0.33L47.44-0.33L47.44-0.33Q45.43-1.39 44.18-3.18L44.18-3.18L44.18-3.18Q42.93-4.96 42.37-7.34L42.37-7.34L42.37-7.34Q41.82-9.72 41.82-12.30L41.82-12.30L41.82-12.30Q41.82-14.76 42.31-16.99L42.31-16.99L42.31-16.99Q42.80-19.23 43.95-20.91L43.95-20.91L43.95-20.91Q45.10-22.59 46.99-23.60L46.99-23.60L46.99-23.60Q48.87-24.60 51.66-24.60L51.66-24.60L57.32-24.60L57.32-31.98ZM52.40-16.07L52.40-16.07L52.40-6.44L53.91-6.44L53.91-6.44Q55.60-6.44 56.40-6.74L56.40-6.74L56.40-6.74Q57.20-7.05 57.32-8.20L57.32-8.20L57.32-18.16L55.80-18.16L55.80-18.16Q54.00-18.16 53.20-17.79L53.20-17.79L53.20-17.79Q52.40-17.43 52.40-16.07ZM93.97-22.88L93.97-30.75L69.86-30.75L69.86-22.88L77.00-22.88L77.00 0L86.84 0L86.84-22.88L93.97-22.88ZM95.69-12.30L95.69-12.30L95.69-12.30Q95.69-18.90 98.77-22.12L98.77-22.12L98.77-22.12Q101.84-25.34 108.73-25.34L108.73-25.34L108.73-25.34Q115.62-25.34 118.69-22.12L118.69-22.12L118.69-22.12Q121.77-18.90 121.77-12.30L121.77-12.30L121.77-12.30Q121.77-5.70 118.69-2.48L118.69-2.48L118.69-2.48Q115.62 0.74 108.73 0.74L108.73 0.74L108.73 0.74Q102.01 0.74 98.85-2.42L98.85-2.42L98.85-2.42Q95.69-5.58 95.69-12.30ZM106.27-16.07L106.27-16.07L106.27-6.44L107.79-6.44L107.79-6.44Q109.59-6.44 110.39-6.81L110.39-6.81L110.39-6.81Q111.19-7.18 111.19-8.53L111.19-8.53L111.19-18.16L109.67-18.16L109.67-18.16Q107.87-18.16 107.07-17.79L107.07-17.79L107.07-17.79Q106.27-17.43 106.27-16.07ZM141.45-9.06L141.45-9.06L141.45-10.37L138.95-10.37L138.95-17.92L150.80-17.92L150.80-1.48L150.80-1.48Q144.98 0.74 138.70 0.74L138.70 0.74L138.70 0.74Q134.40 0.74 131.59-0.29L131.59-0.29L131.59-0.29Q128.78-1.31 127.14-3.34L127.14-3.34L127.14-3.34Q125.50-5.37 124.87-8.38L124.87-8.38L124.87-8.38Q124.23-11.40 124.23-15.42L124.23-15.42L124.23-15.42Q124.23-19.68 125.01-22.73L125.01-22.73L125.01-22.73Q125.79-25.79 127.59-27.74L127.59-27.74L127.59-27.74Q129.40-29.68 132.39-30.59L132.39-30.59L132.39-30.59Q135.38-31.49 139.81-31.49L139.81-31.49L139.81-31.49Q140.79-31.49 142.13-31.39L142.13-31.39L142.13-31.39Q143.46-31.28 144.81-31.10L144.81-31.10L144.81-31.10Q146.16-30.91 147.37-30.69L147.37-30.69L147.37-30.69Q148.58-30.46 149.32-30.22L149.32-30.22L147.85-22.67L147.85-22.67Q145.84-23.00 144.03-23.19L144.03-23.19L144.03-23.19Q142.23-23.37 140.67-23.37L140.67-23.37L140.67-23.37Q137.43-23.37 136.12-22.88L136.12-22.88L136.12-22.88Q134.81-22.39 134.81-20.91L134.81-20.91L134.81-6.97L138.05-6.97L138.05-6.97Q139.85-6.97 140.65-7.36L140.65-7.36L140.65-7.36Q141.45-7.75 141.45-9.06ZM165.07-24.60L165.07 0L155.23 0L155.23-23.37L165.07-24.60ZM154.69-29.23L154.69-29.23L154.69-29.23Q154.69-30.34 154.94-31.10L154.94-31.10L154.94-31.10Q155.19-31.86 155.80-32.33L155.80-32.33L155.80-32.33Q156.41-32.80 157.48-33.01L157.48-33.01L157.48-33.01Q158.55-33.21 160.19-33.21L160.19-33.21L160.19-33.21Q161.83-33.21 162.87-33.01L162.87-33.01L162.87-33.01Q163.92-32.80 164.53-32.33L164.53-32.33L164.53-32.33Q165.15-31.86 165.39-31.10L165.39-31.10L165.39-31.10Q165.64-30.34 165.64-29.23L165.64-29.23L165.64-29.23Q165.64-28.13 165.39-27.39L165.39-27.39L165.39-27.39Q165.15-26.65 164.53-26.18L164.53-26.18L164.53-26.18Q163.92-25.71 162.87-25.52L162.87-25.52L162.87-25.52Q161.83-25.34 160.19-25.34L160.19-25.34L160.19-25.34Q159.00-25.34 157.99-25.42L157.99-25.42L157.99-25.42Q156.99-25.50 156.25-25.89L156.25-25.89L156.25-25.89Q155.51-26.28 155.10-27.06L155.10-27.06L155.10-27.06Q154.69-27.84 154.69-29.23ZM172.36-23.62L172.36-23.62L172.36-23.62Q175.52-25.34 181.01-25.34L181.01-25.34L181.01-25.34Q186.55-25.34 191.14-23.82L191.14-23.82L189.99-17.14L189.99-17.14Q188.07-17.71 186.18-17.96L186.18-17.96L186.18-17.96Q184.29-18.20 182.33-18.20L182.33-18.20L182.33-18.20Q181.75-18.20 180.91-18.16L180.91-18.16L180.91-18.16Q180.07-18.12 179.01-18.00L179.01-18.00L179.01-16.44L179.01-16.44Q181.26-16.44 183.64-16.22L183.64-16.22L183.64-16.22Q186.02-15.99 187.96-15.15L187.96-15.15L187.96-15.15Q189.91-14.31 191.16-12.65L191.16-12.65L191.16-12.65Q192.41-10.99 192.41-8.12L192.41-8.12L192.41-8.12Q192.41-6.11 191.96-4.53L191.96-4.53L191.96-4.53Q191.51-2.95 190.57-2.01L190.57-2.01L190.57-2.01Q189.58-1.07 188.54-0.49L188.54-0.49L188.54-0.49Q187.49 0.08 185.81 0.33L185.81 0.33L185.81 0.33Q184.50 0.53 183.00 0.64L183.00 0.64L183.00 0.64Q181.51 0.74 179.78 0.74L179.78 0.74L179.78 0.74Q173.76 0.74 168.76-0.70L168.76-0.70L169.99-7.67L169.99-7.67Q172.08-7.05 174.29-6.72L174.29-6.72L174.29-6.72Q176.50-6.40 178.92-6.40L178.92-6.40L178.92-6.40Q180.03-6.40 181.04-6.44L181.04-6.44L181.04-6.44Q182.04-6.48 182.98-6.60L182.98-6.60L182.98-8.16L182.98-8.16Q179.05-8.16 176.40-8.67L176.40-8.67L176.40-8.67Q173.76-9.18 172.14-10.25L172.14-10.25L172.14-10.25Q170.52-11.32 169.84-13.04L169.84-13.04L169.84-13.04Q169.17-14.76 169.17-17.14L169.17-17.14L169.17-17.14Q169.17-21.89 172.36-23.62ZM196.84-4.63L196.84-18.25L194.38-18.25L194.38-24.60L196.84-24.60L196.84-28.54L206.68-31.00L206.68-24.60L210.08-24.60L210.08-18.25L206.68-18.25L206.68-7.05L206.68-7.05Q207.30-6.93 208.03-6.83L208.03-6.83L208.03-6.83Q208.77-6.72 209.59-6.68L209.59-6.68L209.14 0.53L209.14 0.53Q202.42 0.53 200.37-0.21L200.37-0.21L200.37-0.21Q198.64-0.82 197.74-1.78L197.74-1.78L197.74-1.78Q196.84-2.75 196.84-4.63L196.84-4.63Z" fill="#00161a"></path></g></g><style>text {
  font-size: 64px;
  font-family: Arial Black;
  dominant-baseline: central;
  text-anchor: middle;
}</style></svg>